#!OML:ASF F:\twosubjects\two\Thursday\Session 1\Rory.ASF
:FULLY-SPECIFIED
:DEGREES
441
root 8.2653 18.5159 -1.1266 2.9704 12.6881 2.12319
lowerback -4.92096 1.45799 -0.78593
upperback -0.710226 2.0073 -0.954054
thorax 2.03444 0.999256 -0.406709
lowerneck -11.8495 -0.191534 1.47249
upperneck 28.981 -2.34586 6.16841
head 11.4561 -0.0878674 1.72123
rclavicle 2.61887e-014 -6.60959e-015
rhumerus 37.6191 -0.313398 -93.0603
rradius 26.1004
rwrist 4.62278
rhand -45.1098 19.4375
rfingers 7.12502
rthumb -17.8893 -9.75976
lclavicle 2.61887e-014 -6.60959e-015
lhumerus 27.7368 -10.2816 81.3884
lradius 37.0419
lwrist 1.21537
lhand -20.1782 49.4983
lfingers 7.12502
lthumb 6.16774 1159.39
rfemur -7.08342 4.60829 17.7239
rtibia 24.1071
rfoot -18.373 -25.3303
rtoes 2.1408
lfemur -3.45554 -6.61031 -17.9288
ltibia 16.4416
lfoot -14.8888 -2.87818
ltoes -0.254128
442
root 8.25359 18.52 -1.12768 2.8671 12.776 2.00655
lowerback -4.92466 1.36676 -0.934244
upperback -0.649869 1.89076 -0.798443
thorax 2.08817 0.939098 -0.170692
lowerneck -11.8565 -0.172123 1.41825
upperneck 28.8091 -2.29608 6.16542
head 11.3891 -0.0771494 1.7319
rclavicle -2.1192e-014 7.37677e-015
rhumerus 37.889 -0.344097 -93.1586
rradius 25.7724
rwrist 4.70556
rhand -45.548 18.7
rfingers 7.12502
rthumb -18.3109 -10.4582
lclavicle -2.1192e-014 7.37677e-015
lhumerus 27.8188 -10.17 81.4685
lradius 36.8719
lwrist 0.634506
lhand -20.5817 49.742
lfingers 7.12502
lthumb 5.77823 1159.64
rfemur -6.97413 4.95117 17.9568
rtibia 24.1424
rfoot -18.4841 -25.7621
rtoes 2.03081
lfemur -3.22793 -6.90209 -17.7926
ltibia 16.3204
lfoot -15.1561 -2.85088
ltoes -1.85335
443
root 8.25145 18.5139 -1.13221 2.92931 12.824 2.11578
lowerback -5.02135 1.3261 -1.09305
upperback -0.675687 1.84696 -0.820069
thorax 2.11155 0.916034 -0.104804
lowerneck -12.0388 -0.220957 1.46978
upperneck 29.0081 -2.39949 6.16378
head 11.5071 -0.109952 1.71405
rclavicle -2.89059e-014 1.15109e-014
rhumerus 38.0361 -0.619787 -93.4064
rradius 25.3247
rwrist 5.14187
rhand -45.4492 18.8887
rfingers 7.12502
rthumb -18.2158 -10.2783
lclavicle -2.89059e-014 1.15109e-014
lhumerus 27.8847 -10.1875 81.3954
lradius 36.7098
lwrist 0.401652
lhand -20.2395 49.5358
lfingers 7.12502
lthumb 6.10858 1159.43
rfemur -7.07426 4.76821 17.8254
rtibia 24.1919
rfoot -18.3745 -25.7014
rtoes 1.52523
lfemur -3.32379 -6.47829 -17.8541
ltibia 16.2207
lfoot -14.7541 -3.06315
ltoes -0.906748
444
root 8.25153 18.5087 -1.13426 3.03258 12.8217 2.27532
lowerback -5.19241 1.29454 -1.25897
upperback -0.705842 1.81832 -0.879417
thorax 2.17316 0.900398 -0.0708939
lowerneck -12.0093 -0.272403 1.59616
upperneck 28.9909 -2.48192 6.08994
head 11.4953 -0.14372 1.65325
rclavicle 1.83158e-014 -5.95112e-015
rhumerus 38.2385 -1.01069 -93.8034
rradius 24.833
rwrist 5.86412
rhand -45.1432 19.8544
rfingers 7.12502
rthumb -17.9214 -9.33986
lclavicle 1.83158e-014 -5.95112e-015
lhumerus 28.0114 -10.1403 81.3264
lradius 36.4082
lwrist 0.187651
lhand -20.0712 49.3979
lfingers 7.12502
lthumb 6.27103 1159.29
rfemur -7.25061 4.64622 17.6214
rtibia 24.3383
rfoot -18.3615 -25.6198
rtoes 1.05092
lfemur -3.38297 -6.03818 -17.9799
ltibia 15.9916
lfoot -14.3303 -3.28694
ltoes 0.613786
445
root 8.24361 18.508 -1.13333 2.98896 12.8383 2.43054
lowerback -5.3297 1.22497 -1.60455
upperback -0.547398 1.74943 -0.823894
thorax 2.40141 0.860563 0.180364
lowerneck -12.1752 -0.254419 1.70846
upperneck 28.8831 -2.41646 5.85076
head 11.48 -0.13283 1.55159
rclavicle -7.78725e-015 -6.96368e-015
rhumerus 38.7059 -1.34625 -94.2281
rradius 24.4779
rwrist 6.68924
rhand -44.8882 20.1061
rfingers 7.12502
rthumb -17.6761 -9.11047
lclavicle -7.78725e-015 -6.96368e-015
lhumerus 28.2486 -9.7007 81.5927
lradius 36.1553
lwrist -0.255869
lhand -20.2231 49.1193
lfingers 7.12502
lthumb 6.12447 1159.01
rfemur -7.19694 4.81889 17.5015
rtibia 24.4407
rfoot -18.5572 -25.7686
rtoes 1.17207
lfemur -3.22825 -5.86767 -18.1108
ltibia 15.8384
lfoot -14.5082 -3.7827
ltoes 0.20931
446
root 8.23703 18.5088 -1.13828 2.88805 12.844 2.53045
lowerback -5.35427 1.20178 -1.77894
upperback -0.385471 1.7321 -0.821538
thorax 2.57694 0.847868 0.281992
lowerneck -12.4722 -0.316113 1.78375
upperneck 28.9681 -2.48417 5.6466
head 11.5715 -0.174101 1.45602
rclavicle 9.01325e-015 -2.11209e-015
rhumerus 39.0074 -1.55171 -94.4159
rradius 24.4904
rwrist 6.90395
rhand -44.3597 19.5091
rfingers 7.12502
rthumb -17.1674 -9.7525
lclavicle 9.01325e-015 -2.11209e-015
lhumerus 28.5062 -9.5236 81.6276
lradius 36.0909
lwrist -0.329268
lhand -19.9546 48.9529
lfingers 7.12502
lthumb 6.38361 1158.84
rfemur -7.04408 5.05743 17.4522
rtibia 24.3953
rfoot -18.6995 -25.9281
rtoes 1.77005
lfemur -3.16598 -5.80029 -18.1975
ltibia 15.9289
lfoot -14.7213 -4.17936
ltoes 0.0190955
447
root 8.22925 18.5156 -1.14636 2.63601 12.738 2.2525
lowerback -5.14143 1.26446 -1.47269
upperback -0.353555 1.79283 -0.813658
thorax 2.49863 0.881964 0.118316
lowerneck -12.3983 -0.443515 1.7731
upperneck 28.886 -2.66459 5.66889
head 11.5298 -0.257755 1.44006
rclavicle 1.56512e-014 -4.63417e-015
rhumerus 39.0618 -1.7113 -94.3978
rradius 24.4524
rwrist 6.84926
rhand -44.0324 19.5724
rfingers 7.12502
rthumb -16.8524 -9.71633
lclavicle 1.56512e-014 -4.63417e-015
lhumerus 28.8356 -9.95706 81.0864
lradius 35.8274
lwrist 0.0788649
lhand -19.4487 48.9499
lfingers 7.12502
lthumb 6.87204 1158.82
rfemur -6.80364 5.36854 17.8235
rtibia 24.2736
rfoot -18.6548 -26.0736
rtoes 2.09129
lfemur -3.01091 -5.82458 -17.9045
ltibia 16.123
lfoot -14.8322 -4.01811
ltoes 0.165385
448
root 8.22345 18.5225 -1.15428 2.49746 12.5223 1.9792
lowerback -5.0472 1.36525 -1.14348
upperback -0.359062 1.90603 -0.804098
thorax 2.44919 0.942226 -0.0506039
lowerneck -12.0666 -0.507248 1.66245
upperneck 28.4408 -2.75663 5.90262
head 11.2979 -0.301328 1.52416
rclavicle -4.27387e-014 1.12065e-014
rhumerus 39.2751 -1.91244 -94.3605
rradius 24.0765
rwrist 6.96219
rhand -43.7299 20.225
rfingers 7.12502
rthumb -16.5612 -9.08832
lclavicle -4.27387e-014 1.12065e-014
lhumerus 29.2282 -10.4505 80.5708
lradius 35.3191
lwrist 0.263615
lhand -19.1342 48.1334
lfingers 7.12502
lthumb 7.17557 1157.99
rfemur -6.72437 5.22754 18.1018
rtibia 24.1518
rfoot -18.5015 -25.7441
rtoes 2.54964
lfemur -2.96312 -5.78031 -17.6272
ltibia 16.3283
lfoot -14.997 -3.71058
ltoes -0.562953
449
root 8.22288 18.5229 -1.1628 2.56405 12.2448 1.96456
lowerback -5.17318 1.41497 -1.13046
upperback -0.350939 1.97339 -0.787905
thorax 2.52754 0.975351 -0.0329397
lowerneck -11.821 -0.454858 1.54567
upperneck 28.0569 -2.68725 6.13626
head 11.1044 -0.269882 1.63102
rclavicle 9.82781e-015 8.29926e-015
rhumerus 39.4632 -2.01898 -94.4706
rradius 23.8739
rwrist 7.24008
rhand -43.2063 20.0667
rfingers 7.12502
rthumb -16.057 -9.28795
lclavicle 9.82781e-015 8.29926e-015
lhumerus 29.3727 -10.1729 80.707
lradius 35.0245
lwrist -0.1674
lhand -18.9982 47.073
lfingers 7.12502
lthumb 7.30684 1156.93
rfemur -6.86452 4.89009 18.0311
rtibia 24.0594
rfoot -18.252 -25.226
rtoes 2.71658
lfemur -3.10366 -5.83745 -17.6477
ltibia 16.5122
lfoot -15.1013 -3.27621
ltoes -1.22619
450
root 8.22294 18.5217 -1.1697 2.62237 12.1014 1.96736
lowerback -5.14881 1.36114 -1.21232
upperback -0.462303 1.90265 -0.720836
thorax 2.39477 0.939999 0.0742534
lowerneck -11.8192 -0.316467 1.50816
upperneck 28.2913 -2.50634 6.17899
head 11.1889 -0.179732 1.68153
rclavicle -5.48043e-014 5.67779e-015
rhumerus 39.2419 -1.64242 -94.1505
rradius 23.9844
rwrist 6.93893
rhand -42.8702 19.2818
rfingers 7.12502
rthumb -15.7334 -10.0987
lclavicle -5.48043e-014 5.67779e-015
lhumerus 29.1492 -9.4221 81.2267
lradius 34.8574
lwrist -1.08815
lhand -19.4518 47.134
lfingers 7.12502
lthumb 6.86905 1157
rfemur -6.98501 4.77496 17.9874
rtibia 24.0368
rfoot -18.0682 -25.0539
rtoes 2.54133
lfemur -3.20883 -5.91159 -17.6677
ltibia 16.5934
lfoot -15.1346 -3.25957
ltoes -0.937208
